<svg width="55" height="55" viewBox="0 0 55 55" fill="none" xmlns="http://www.w3.org/2000/svg">
<path d="M38.9583 25.2083V6.875H16.0417V16.0417H6.875V48.125H25.2083V38.9583H29.7917V48.125H48.125V25.2083H38.9583ZM16.0417 43.5417H11.4583V38.9583H16.0417V43.5417ZM16.0417 34.375H11.4583V29.7917H16.0417V34.375ZM16.0417 25.2083H11.4583V20.625H16.0417V25.2083ZM25.2083 34.375H20.625V29.7917H25.2083V34.375ZM25.2083 25.2083H20.625V20.625H25.2083V25.2083ZM25.2083 16.0417H20.625V11.4583H25.2083V16.0417ZM34.375 34.375H29.7917V29.7917H34.375V34.375ZM34.375 25.2083H29.7917V20.625H34.375V25.2083ZM34.375 16.0417H29.7917V11.4583H34.375V16.0417ZM43.5417 43.5417H38.9583V38.9583H43.5417V43.5417ZM43.5417 34.375H38.9583V29.7917H43.5417V34.375Z" fill="#383B43"/>
</svg>
