<svg width="78" height="78" viewBox="0 0 78 78" fill="none" xmlns="http://www.w3.org/2000/svg">
<rect x="0.5" y="0.5" width="77" height="77" rx="38.5" fill="white"/>
<rect x="0.5" y="0.5" width="77" height="77" rx="38.5" stroke="#E9E9E9"/>
<circle cx="39.5" cy="38.5" r="30.5" fill="#F2AD2F"/>
<path d="M50.3333 31.9167H44.6666V29.0833L41.8333 26.25H36.1666L33.3333 29.0833V31.9167H27.6666C26.1083 31.9167 24.8333 33.1917 24.8333 34.75V41.8333C24.8333 42.8958 25.4 43.7883 26.25 44.2842V48.9167C26.25 50.4892 27.5108 51.75 29.0833 51.75H48.9166C50.4891 51.75 51.75 50.4892 51.75 48.9167V44.27C52.5858 43.7742 53.1666 42.8675 53.1666 41.8333V34.75C53.1666 33.1917 51.8916 31.9167 50.3333 31.9167ZM36.1666 29.0833H41.8333V31.9167H36.1666V29.0833ZM27.6666 34.75H50.3333V41.8333H43.25V37.5833H34.75V41.8333H27.6666V34.75ZM40.4166 43.25H37.5833V40.4167H40.4166V43.25ZM48.9166 48.9167H29.0833V44.6667H34.75V46.0833H43.25V44.6667H48.9166V48.9167Z" fill="white"/>
</svg>
