<svg width="332" height="324" viewBox="0 0 332 324" fill="none" xmlns="http://www.w3.org/2000/svg">
<g filter="url(#filter0_d_1527_23147)">
<path d="M146.244 43.1577C157.798 34.7631 173.443 34.7631 184.997 43.1577L268.803 104.046C280.357 112.441 285.192 127.32 280.778 140.903L248.767 239.422C244.354 253.005 231.697 262.201 217.415 262.201H113.826C99.5439 262.201 86.8865 253.005 82.4733 239.422L50.4624 140.903C46.0491 127.32 50.8838 112.441 62.4379 104.046L146.244 43.1577Z" fill="white"/>
</g>
<path d="M122.953 128.406H112.82V199.337C112.82 204.91 117.38 209.47 122.953 209.47H193.884V199.337H122.953V128.406ZM204.017 108.14H143.219C137.646 108.14 133.086 112.7 133.086 118.273V179.071C133.086 184.644 137.646 189.204 143.219 189.204H204.017C209.59 189.204 214.15 184.644 214.15 179.071V118.273C214.15 112.7 209.59 108.14 204.017 108.14ZM188.817 118.273V143.605L183.751 139.806L178.684 143.605V118.273H188.817ZM204.017 179.071H143.219V118.273H168.551V163.871L183.751 152.472L198.95 163.871V118.273H204.017V179.071Z" fill="#ED6C2C"/>
<defs>
<filter id="filter0_d_1527_23147" x="-0.00170898" y="2.57492e-05" width="331.246" height="323.038" filterUnits="userSpaceOnUse" color-interpolation-filters="sRGB">
<feFlood flood-opacity="0" result="BackgroundImageFix"/>
<feColorMatrix in="SourceAlpha" type="matrix" values="0 0 0 0 0 0 0 0 0 0 0 0 0 0 0 0 0 0 127 0" result="hardAlpha"/>
<feOffset dy="11.9876"/>
<feGaussianBlur stdDeviation="24.4247"/>
<feComposite in2="hardAlpha" operator="out"/>
<feColorMatrix type="matrix" values="0 0 0 0 0.964706 0 0 0 0 0.701961 0 0 0 0 0.568627 0 0 0 0.44 0"/>
<feBlend mode="normal" in2="BackgroundImageFix" result="effect1_dropShadow_1527_23147"/>
<feBlend mode="normal" in="SourceGraphic" in2="effect1_dropShadow_1527_23147" result="shape"/>
</filter>
</defs>
</svg>
