<svg width="78" height="78" viewBox="0 0 78 78" fill="none" xmlns="http://www.w3.org/2000/svg">
<rect x="0.5" y="0.5" width="77" height="77" rx="38.5" fill="white"/>
<rect x="0.5" y="0.5" width="77" height="77" rx="38.5" stroke="#E9E9E9"/>
<circle cx="39.5" cy="38.5" r="30.5" fill="#7E34FF"/>
<path d="M50.3334 31.9167H44.6667V29.0833L41.8334 26.25H36.1667L33.3334 29.0833V31.9167H27.6667C26.1084 31.9167 24.8334 33.1917 24.8334 34.75V41.8333C24.8334 42.8958 25.4 43.7883 26.25 44.2842V48.9167C26.25 50.4892 27.5109 51.75 29.0834 51.75H48.9167C50.4892 51.75 51.75 50.4892 51.75 48.9167V44.27C52.5859 43.7742 53.1667 42.8675 53.1667 41.8333V34.75C53.1667 33.1917 51.8917 31.9167 50.3334 31.9167ZM36.1667 29.0833H41.8334V31.9167H36.1667V29.0833ZM27.6667 34.75H50.3334V41.8333H43.25V37.5833H34.75V41.8333H27.6667V34.75ZM40.4167 43.25H37.5834V40.4167H40.4167V43.25ZM48.9167 48.9167H29.0834V44.6667H34.75V46.0833H43.25V44.6667H48.9167V48.9167Z" fill="white"/>
</svg>
