<svg width="981" height="638" viewBox="0 0 981 638" fill="none" xmlns="http://www.w3.org/2000/svg">
<path d="M320.366 66.0547C461.141 66.0547 574.678 179.496 574.678 318.715C574.678 457.934 461.141 571.375 320.366 571.375C179.592 571.375 66.0547 457.934 66.0547 318.715C66.0548 179.496 179.592 66.0549 320.366 66.0547Z" stroke="white" stroke-width="132.11"/>
<path d="M667.153 569.724C732.849 569.724 795.854 543.278 842.308 496.205C888.762 449.132 914.859 385.287 914.859 318.715C914.859 252.143 888.762 188.298 842.308 141.225C795.854 94.1518 732.849 67.7063 667.153 67.7063" stroke="white" stroke-width="132.11"/>
<path d="M0 199.816V0H199.816C94.3398 48.4471 48.717 91.3338 0 199.816Z" fill="#E85002"/>
</svg>
