<svg width="55" height="55" viewBox="0 0 55 55" fill="none" xmlns="http://www.w3.org/2000/svg">
<path d="M23.5354 27.5H31.4646C33.5958 27.5 35.2 25.5979 34.8563 23.4896L34.1688 19.3875C33.6188 16.1333 30.8 13.75 27.5 13.75C24.2 13.75 21.3813 16.1333 20.8313 19.4104L20.1438 23.5125C19.8 25.5979 21.4042 27.5 23.5354 27.5ZM25.3458 20.1438C25.5292 19.0896 26.4229 18.3333 27.5 18.3333C28.5771 18.3333 29.4708 19.0896 29.6542 20.1438L30.1125 22.9167H24.8875L25.3458 20.1438Z" fill="#383B43"/>
<path d="M3.80417 25.4604C3.50625 26.0562 3.39167 26.7667 3.575 27.4771C3.94167 29.0583 5.31667 29.8375 7.08125 29.7687C7.08125 29.7687 10.4958 29.7687 11.55 29.7687C13.4521 29.7687 15.0104 28.4396 15.0104 26.8125C15.0104 26.4917 14.9417 26.1938 14.85 25.8958C14.8271 25.8271 14.8271 25.7813 14.8729 25.7125C15.0792 25.3458 15.1938 24.9333 15.1938 24.4979C15.1938 23.7875 14.8729 23.1229 14.3688 22.6187C14.3 22.55 14.3 22.4813 14.3229 22.3896C14.4833 21.9313 14.4833 21.4042 14.3458 20.9C13.9792 19.9146 13.0854 19.25 12.0771 19.2042C12.0083 19.2042 11.9625 19.1813 11.9167 19.1354C11.5271 18.6542 10.8167 18.3333 10.0146 18.3333C9.32708 18.3333 8.70833 18.5625 8.29583 18.9292C8.22708 18.9979 8.15833 18.9979 8.08958 18.975C7.76875 18.8375 7.40208 18.7687 7.03542 18.7687C5.54583 18.7687 4.33125 19.8917 4.19375 21.3354C4.19375 21.3813 4.17083 21.4271 4.125 21.4729C3.46042 22.0688 3.07083 22.9625 3.18542 23.8792C3.25417 24.3833 3.46042 24.8646 3.75833 25.2542C3.82708 25.3 3.82708 25.3917 3.80417 25.4604Z" fill="#383B43"/>
<path d="M37.2167 31.2812C34.5354 30.0896 31.2354 29.2188 27.5 29.2188C23.7646 29.2188 20.4646 30.1125 17.7833 31.2812C15.3083 32.3813 13.75 34.8562 13.75 37.5604V41.25H41.25V37.5604C41.25 34.8562 39.6917 32.3813 37.2167 31.2812ZM18.4937 36.6667C18.7 36.1396 19.1125 35.7042 19.6167 35.475C22.1375 34.3521 24.7958 33.8021 27.4771 33.8021C30.1812 33.8021 32.8167 34.375 35.3375 35.475C35.8646 35.7042 36.2542 36.1396 36.4604 36.6667H18.4937Z" fill="#383B43"/>
<path d="M2.79583 33.4125C1.1 34.1458 0 35.7958 0 37.6521V41.25H10.3125V37.5604C10.3125 35.6583 10.8396 33.8708 11.7563 32.3125C10.9083 32.175 10.0604 32.0833 9.16667 32.0833C6.89792 32.0833 4.74375 32.5646 2.79583 33.4125Z" fill="#383B43"/>
<path d="M52.2042 33.4125C50.2563 32.5646 48.1021 32.0833 45.8333 32.0833C44.9396 32.0833 44.0917 32.175 43.2438 32.3125C44.1604 33.8708 44.6875 35.6583 44.6875 37.5604V41.25H55V37.6521C55 35.7958 53.9 34.1458 52.2042 33.4125Z" fill="#383B43"/>
<path d="M50.4167 25.2083V24.0625C50.4167 21.5417 48.3542 19.4792 45.8333 19.4792H41.25C40.2875 19.4792 39.7604 20.5792 40.3563 21.3354L41.9604 22.7792C41.525 23.4896 41.25 24.3146 41.25 25.2083C41.25 27.7292 43.3125 29.7917 45.8333 29.7917C48.3542 29.7917 50.4167 27.7292 50.4167 25.2083Z" fill="#383B43"/>
</svg>
