<svg width="92" height="92" viewBox="0 0 92 92" fill="none" xmlns="http://www.w3.org/2000/svg">
<g clip-path="url(#clip0_836_24097)">
<rect width="92" height="92" rx="12.4324" fill="white"/>
<path d="M69.3751 25.1666C66.5538 24.277 63.453 23.8958 60.4792 23.8958C55.523 23.8958 50.1855 24.9124 46.5001 27.7083C42.8147 24.9124 37.4772 23.8958 32.5209 23.8958C27.5647 23.8958 22.2272 24.9124 18.5417 27.7083V64.9437C18.5417 65.5791 19.1772 66.2145 19.8126 66.2145C20.0667 66.2145 20.1938 66.0874 20.448 66.0874C23.8792 64.4353 28.8355 63.2916 32.5209 63.2916C37.4772 63.2916 42.8147 64.3083 46.5001 67.1041C49.9313 64.9437 56.1584 63.2916 60.4792 63.2916C64.673 63.2916 68.9938 64.0541 72.5522 65.9603C72.8063 66.0874 72.9334 66.0874 73.1876 66.0874C73.823 66.0874 74.4584 65.452 74.4584 64.8166V27.7083C72.9334 26.5645 71.2813 25.802 69.3751 25.1666ZM69.3751 59.4791C66.5793 58.5895 63.5293 58.2082 60.4792 58.2082C56.1584 58.2082 49.9313 59.8603 46.5001 62.0207V32.7916C49.9313 30.6312 56.1584 28.9791 60.4792 28.9791C63.5293 28.9791 66.5793 29.3603 69.3751 30.2499V59.4791Z" fill="#ED6C2C"/>
<path d="M60.4792 39.1458C62.7159 39.1458 64.8763 39.3745 66.8334 39.8066V35.9433C64.8255 35.562 62.6651 35.3333 60.4792 35.3333C56.1584 35.3333 52.2442 36.0703 49.0417 37.4428V41.662C51.9138 40.0353 55.9043 39.1458 60.4792 39.1458Z" fill="#ED6C2C"/>
<path d="M49.0417 44.2037V48.4228C51.9138 46.7962 55.9043 45.9066 60.4792 45.9066C62.7159 45.9066 64.8763 46.1353 66.8334 46.5674V42.7041C64.8255 42.3228 62.6651 42.0941 60.4792 42.0941C56.1584 42.0941 52.2442 42.8566 49.0417 44.2037Z" fill="#ED6C2C"/>
<path d="M60.4792 48.8803C56.1584 48.8803 52.2442 49.6174 49.0417 50.9899V55.2091C51.9138 53.5824 55.9043 52.6928 60.4792 52.6928C62.7159 52.6928 64.8763 52.9216 66.8334 53.3537V49.4903C64.8255 49.0837 62.6651 48.8803 60.4792 48.8803Z" fill="#ED6C2C"/>
</g>
<defs>
<clipPath id="clip0_836_24097">
<rect width="92" height="92" rx="12.4324" fill="white"/>
</clipPath>
</defs>
</svg>
