<svg width="92" height="92" viewBox="0 0 92 92" fill="none" xmlns="http://www.w3.org/2000/svg">
<g clip-path="url(#clip0_836_24086)">
<rect width="92" height="92" rx="12.4324" fill="white"/>
<path d="M57.912 54.7603V50.3124L51.5833 56.6666L57.912 63.0207V58.5728H71.9166V54.7603H57.912ZM65.5878 65.5624H51.5833V69.3749H65.5878V73.8228L71.9166 67.4687L65.5878 61.1145V65.5624ZM40.1458 29.3437C42.9416 29.3437 45.2291 27.0562 45.2291 24.2603C45.2291 21.4645 42.9416 19.177 40.1458 19.177C37.3499 19.177 35.0624 21.4645 35.0624 24.2603C35.0624 27.0562 37.3499 29.3437 40.1458 29.3437ZM30.6145 37.9853L23.6249 73.8228H28.9624L33.4103 53.4895L38.8749 58.5728V73.8228H43.9583V54.6332L38.7478 49.4228L40.2728 41.7978C43.577 45.8645 48.5333 48.4062 54.1249 48.4062V43.3228C49.4228 43.3228 45.3562 40.7812 43.0687 37.0958L40.6541 33.0291C39.7645 31.5041 38.1124 30.6145 36.3333 30.6145C35.6978 30.6145 35.0624 30.7416 34.427 30.9958L21.0833 36.4603V48.4062H26.1666V39.8916L30.6145 37.9853Z" fill="#ED6C2C"/>
</g>
<defs>
<clipPath id="clip0_836_24086">
<rect width="92" height="92" rx="12.4324" fill="white"/>
</clipPath>
</defs>
</svg>
