<svg width="332" height="324" viewBox="0 0 332 324" fill="none" xmlns="http://www.w3.org/2000/svg">
<g filter="url(#filter0_d_1527_23143)">
<path d="M146.244 43.1577C157.798 34.7631 173.443 34.7631 184.997 43.1577L268.803 104.046C280.357 112.441 285.192 127.32 280.778 140.903L248.767 239.422C244.354 253.005 231.697 262.201 217.415 262.201H113.826C99.5439 262.201 86.8865 253.005 82.4733 239.422L50.4624 140.903C46.0491 127.32 50.8838 112.441 62.4379 104.046L146.244 43.1577Z" fill="white"/>
</g>
<path d="M195.206 157.564L178.793 149.358C185.328 144.292 189.533 136.39 189.533 127.474C189.533 112.125 177.02 99.6128 161.671 99.6128C146.322 99.6128 133.81 112.125 133.81 127.474C133.81 138.264 139.99 147.635 149.007 152.245V168.759C138.116 166.429 138.775 166.53 137.559 166.53C134.874 166.53 132.341 167.594 130.416 169.519L123.324 176.712L149.108 202.497C151.287 204.725 154.326 205.992 157.467 205.992H189.381C194.345 205.992 198.549 202.446 199.36 197.532L203.412 173.673C204.527 167.088 201.234 160.603 195.206 157.564ZM193.433 172.001L189.381 195.861H157.467C157.011 195.861 156.606 195.658 156.251 195.354L137.609 176.712L159.139 181.221V127.474C159.139 126.056 160.253 124.941 161.671 124.941C163.09 124.941 164.204 126.056 164.204 127.474V157.868H173.12L190.647 166.632C192.673 167.645 193.788 169.823 193.433 172.001ZM143.941 127.474C143.941 117.697 151.895 109.744 161.671 109.744C171.448 109.744 179.401 117.697 179.401 127.474C179.401 132.286 177.476 136.643 174.336 139.834V127.474C174.336 120.483 168.662 114.81 161.671 114.81C154.681 114.81 149.007 120.483 149.007 127.474V139.834C145.866 136.643 143.941 132.286 143.941 127.474Z" fill="#ED6C2C"/>
<defs>
<filter id="filter0_d_1527_23143" x="-0.00170898" y="2.57492e-05" width="331.246" height="323.038" filterUnits="userSpaceOnUse" color-interpolation-filters="sRGB">
<feFlood flood-opacity="0" result="BackgroundImageFix"/>
<feColorMatrix in="SourceAlpha" type="matrix" values="0 0 0 0 0 0 0 0 0 0 0 0 0 0 0 0 0 0 127 0" result="hardAlpha"/>
<feOffset dy="11.9876"/>
<feGaussianBlur stdDeviation="24.4247"/>
<feComposite in2="hardAlpha" operator="out"/>
<feColorMatrix type="matrix" values="0 0 0 0 0.964706 0 0 0 0 0.701961 0 0 0 0 0.568627 0 0 0 0.44 0"/>
<feBlend mode="normal" in2="BackgroundImageFix" result="effect1_dropShadow_1527_23143"/>
<feBlend mode="normal" in="SourceGraphic" in2="effect1_dropShadow_1527_23143" result="shape"/>
</filter>
</defs>
</svg>
