<svg width="29" height="29" viewBox="0 0 29 29" fill="none" xmlns="http://www.w3.org/2000/svg">
<rect width="29" height="29" rx="4" fill="#ED6C2C"/>
<g clip-path="url(#clip0_749_30239)">
<path d="M14.6023 22.069V19.5425C11.0862 19.36 8.28589 16.4404 8.28589 12.8822C8.28589 9.20461 11.2757 6.21484 14.9532 6.21484C18.6308 6.21484 21.6205 9.20461 21.6205 12.8822C21.6205 16.3562 19.2063 19.8513 15.6059 21.5848L14.6023 22.069ZM14.9532 7.61849C12.0477 7.61849 9.68953 9.97661 9.68953 12.8822C9.68953 15.7877 12.0477 18.1458 14.9532 18.1458H16.0059V19.76C18.5606 18.1458 20.2169 15.4929 20.2169 12.8822C20.2169 9.97661 17.8588 7.61849 14.9532 7.61849ZM14.2514 15.6895H15.655V17.0931H14.2514V15.6895ZM15.655 14.6367H14.2514C14.2514 12.3558 16.3569 12.5312 16.3569 11.1276C16.3569 10.3556 15.7252 9.72396 14.9532 9.72396C14.1812 9.72396 13.5496 10.3556 13.5496 11.1276H12.1459C12.1459 9.57658 13.4022 8.32031 14.9532 8.32031C16.5042 8.32031 17.7605 9.57658 17.7605 11.1276C17.7605 12.8822 15.655 13.0576 15.655 14.6367Z" fill="white"/>
</g>
<defs>
<clipPath id="clip0_749_30239">
<rect width="16.8437" height="16.8437" fill="white" transform="translate(6.53125 5.71875)"/>
</clipPath>
</defs>
</svg>
