<svg width="1163" height="838" viewBox="0 0 1163 838" fill="none" xmlns="http://www.w3.org/2000/svg">
<path fill-rule="evenodd" clip-rule="evenodd" d="M0 124.287C29.8934 120.92 60.2354 123.566 89.2588 132.193C128.209 143.771 163.372 165.699 191.114 195.711C218.856 225.723 238.171 262.731 247.062 302.91C255.954 343.089 254.1 384.982 241.692 424.259C229.284 463.537 206.773 498.775 176.483 526.332C146.194 553.888 109.225 572.764 69.3975 581.008C46.4627 585.756 23.0588 586.878 0 584.429V460.179C14.9203 463.68 30.4611 463.904 45.5693 460.776C64.2768 456.903 81.6417 448.037 95.8691 435.093C110.096 422.15 120.671 405.598 126.499 387.149C132.327 368.7 133.197 349.022 129.021 330.15C124.844 311.278 115.772 293.895 102.741 279.799C89.7104 265.701 73.1938 255.401 54.8984 249.963C37.0398 244.654 18.1185 244.167 0 248.535V124.287Z" fill="#C3F1FF"/>
<path d="M819.867 97.707L961.241 57.8877C1013.74 43.1021 1067.38 77.0063 1076.71 130.549L1076.92 131.817L1108.43 328.451L1162.79 311.824L1162.79 443.357L1108.03 460.107C1054.69 476.425 999.219 441.842 990.391 386.756L958.74 189.267L816.126 229.437C762.043 244.67 707.07 208.243 700.017 152.5L680.723 0H807.505L819.867 97.707Z" fill="#C3F1FF"/>
<path d="M573.257 270.035L330.238 419.489L573.257 555.943V270.035Z" fill="#1BA4CF"/>
<path d="M247.066 519.557L330.419 419.436L574.733 556.538L491.385 663.808L247.066 519.557Z" fill="#96E6FC"/>
<path d="M831.875 418.193L573.262 270.042V563.744L831.875 418.193Z" fill="#23C0F2"/>
<path d="M327.645 676.805V567.152L491.176 662.889L573.443 558.01L580.968 837.655L327.645 676.805Z" fill="#21C1F6"/>
<path d="M579.087 837.952L573.285 557.1L577.614 561.171L622.809 608.745L670.282 659.191L833.839 566.536L835.774 698.898L579.087 837.952Z" fill="#64D8FF"/>
<path d="M670.727 659.909L572.602 556.428L831.59 418.068L908.547 524.754L670.727 659.909Z" fill="#9CE5FE"/>
<path d="M597.874 387.472V326.036L569.404 295.317L540.933 326.036V346.514H483.992V489.866H654.815V387.472H597.874ZM521.953 469.387H502.973V448.908H521.953V469.387ZM521.953 428.429H502.973V407.951H521.953V428.429ZM521.953 387.472H502.973V366.993H521.953V387.472ZM578.894 469.387H559.913V448.908H578.894V469.387ZM578.894 428.429H559.913V407.951H578.894V428.429ZM578.894 387.472H559.913V366.993H578.894V387.472ZM578.894 346.514H559.913V326.036H578.894V346.514ZM635.835 469.387H616.854V448.908H635.835V469.387ZM635.835 428.429H616.854V407.951H635.835V428.429Z" fill="url(#paint0_linear_1543_23140)"/>
<defs>
<linearGradient id="paint0_linear_1543_23140" x1="569.404" y1="295.317" x2="569.404" y2="489.866" gradientUnits="userSpaceOnUse">
<stop stop-color="#D9E8FF"/>
<stop offset="1" stop-color="#F4FCFF"/>
</linearGradient>
</defs>
</svg>
