<svg width="92" height="92" viewBox="0 0 92 92" fill="none" xmlns="http://www.w3.org/2000/svg">
<rect width="92" height="92" rx="12.4324" fill="white"/>
<path d="M46.4913 43.7042C40.7217 42.2046 38.8663 40.6542 38.8663 38.2396C38.8663 35.4692 41.4334 33.5375 45.7288 33.5375C50.253 33.5375 51.9305 35.6979 52.083 38.875H57.7001C57.5222 34.5033 54.8534 30.4875 49.5413 29.1913V23.625H41.9163V29.115C36.9855 30.1825 33.0205 33.385 33.0205 38.2904C33.0205 44.1617 37.8751 47.0846 44.9663 48.7875C51.3205 50.3125 52.5913 52.5492 52.5913 54.9129C52.5913 56.6667 51.3459 59.4625 45.7288 59.4625C40.493 59.4625 38.4342 57.1242 38.1547 54.125H32.563C32.868 59.6912 37.0363 62.8175 41.9163 63.8596V69.375H49.5413V63.9104C54.4976 62.97 58.4372 60.0979 58.4372 54.8875C58.4372 47.6692 52.2609 45.2037 46.4913 43.7042Z" fill="#ED6C2C"/>
</svg>
