<svg width="55" height="55" viewBox="0 0 55 55" fill="none" xmlns="http://www.w3.org/2000/svg">
<path d="M27.0875 13.75C29.6188 13.75 31.6708 11.698 31.6708 9.16671C31.6708 6.6354 29.6188 4.58337 27.0875 4.58337C24.5562 4.58337 22.5042 6.6354 22.5042 9.16671C22.5042 11.698 24.5562 13.75 27.0875 13.75Z" fill="#383B43"/>
<path d="M36.0021 18.5855C35.1083 17.6917 33.5729 16.0417 30.5937 16.0417C30.1125 16.0417 27.3396 16.0417 24.7729 16.0417C18.4708 16.0188 13.3375 10.8855 13.3375 4.58337H8.75415C8.75415 11.825 13.5896 17.9667 20.2125 19.9605V50.4167H24.7958V36.6667H29.3792V50.4167H33.9625V23.0313L43.0146 32.0834L46.2458 28.8521L36.0021 18.5855Z" fill="#383B43"/>
</svg>
