<svg width="1163" height="860" viewBox="0 0 1163 860" fill="none" xmlns="http://www.w3.org/2000/svg">
<path fill-rule="evenodd" clip-rule="evenodd" d="M831.095 5.55176H1015.28C1008.4 8.31027 1001.75 11.7045 995.444 15.708C977.621 27.0198 963.075 42.8064 953.217 61.5371C943.36 80.2676 938.526 101.306 939.182 122.613C939.839 143.92 945.964 164.773 956.965 183.147C967.966 201.522 983.469 216.796 1001.97 227.487C1020.47 238.179 1041.34 243.926 1062.56 244.171C1083.78 244.415 1104.62 239.15 1123.07 228.884C1138.83 220.118 1152.38 207.958 1162.79 193.31V365.046C1131.23 377.769 1097.3 384.174 1062.91 383.777C1017.73 383.257 973.299 371.021 933.911 348.259C894.522 325.496 861.517 292.979 838.096 253.86C814.675 214.741 801.633 170.347 800.235 124.985C798.896 81.5243 808.289 38.5874 827.536 -0.00585938L831.095 5.55176Z" fill="#FEE0CD"/>
<path d="M574.348 297.465L333.914 445.329L574.348 580.331V297.465Z" fill="#FF9950"/>
<path d="M251.621 544.331L334.088 445.275L575.803 580.919L493.341 687.049L251.621 544.331Z" fill="#FEC9A8"/>
<path d="M830.203 444.046L574.34 297.471V588.049L830.203 444.046Z" fill="#FDBA56"/>
<path d="M331.34 699.904V591.418L493.132 686.136L574.524 582.373L581.969 859.044L331.34 699.904Z" fill="#FFBA50"/>
<path d="M580.107 859.341L574.367 581.477L578.65 585.504L623.365 632.573L670.333 682.482L832.15 590.813L834.064 721.767L580.107 859.341Z" fill="#FFCA7A"/>
<path d="M670.773 683.19L573.691 580.81L829.926 443.922L906.064 549.473L670.773 683.19Z" fill="#FEC9A8"/>
<path fill-rule="evenodd" clip-rule="evenodd" d="M0 537.594C5.09035 539.755 9.99651 542.58 14.5986 546.083L232.627 712.057C262.404 734.724 268.168 777.24 245.5 807.017C222.832 836.794 180.317 842.557 150.54 819.89L0 705.29V537.594Z" fill="#FEE0CD"/>
<path d="M575.308 350.883C524.301 350.883 482.996 391.72 482.996 442.038C482.996 492.356 524.301 533.194 575.308 533.194C626.407 533.194 667.805 492.356 667.805 442.038C667.805 391.72 626.407 350.883 575.308 350.883ZM639.344 405.576H612.085C609.128 394.182 604.877 383.243 599.333 373.125C616.335 378.868 630.473 390.535 639.344 405.576ZM575.4 369.479C583.07 380.417 589.076 392.541 593.05 405.576H557.751C561.725 392.541 567.731 380.417 575.4 369.479ZM503.879 460.269C502.401 454.435 501.477 448.328 501.477 442.038C501.477 435.749 502.401 429.641 503.879 423.807H535.112C534.373 429.823 533.818 435.84 533.818 442.038C533.818 448.237 534.373 454.253 535.112 460.269H503.879ZM511.457 478.501H538.716C541.673 489.895 545.923 500.834 551.468 510.952C534.465 505.209 520.327 493.632 511.457 478.501ZM538.716 405.576H511.457C520.327 390.444 534.465 378.868 551.468 373.125C545.923 383.243 541.673 394.182 538.716 405.576ZM575.4 514.598C567.731 503.659 561.725 491.536 557.751 478.501H593.05C589.076 491.536 583.07 503.659 575.4 514.598ZM597.023 460.269H553.778C552.946 454.253 552.299 448.237 552.299 442.038C552.299 435.84 552.946 429.732 553.778 423.807H597.023C597.855 429.732 598.501 435.84 598.501 442.038C598.501 448.237 597.855 454.253 597.023 460.269ZM599.333 510.952C604.877 500.834 609.128 489.895 612.085 478.501H639.344C630.473 493.541 616.335 505.209 599.333 510.952ZM615.689 460.269C616.428 454.253 616.982 448.237 616.982 442.038C616.982 435.84 616.428 429.823 615.689 423.807H646.921C648.4 429.641 649.324 435.749 649.324 442.038C649.324 448.328 648.4 454.435 646.921 460.269H615.689Z" fill="url(#paint0_linear_1543_23141)"/>
<defs>
<linearGradient id="paint0_linear_1543_23141" x1="575.4" y1="350.883" x2="575.4" y2="533.194" gradientUnits="userSpaceOnUse">
<stop stop-color="#FFC7AB"/>
<stop offset="1" stop-color="white"/>
</linearGradient>
</defs>
</svg>
