<svg width="78" height="78" viewBox="0 0 78 78" fill="none" xmlns="http://www.w3.org/2000/svg">
<rect x="0.5" y="0.5" width="77" height="77" rx="38.5" fill="white"/>
<rect x="0.5" y="0.5" width="77" height="77" rx="38.5" stroke="#E9E9E9"/>
<circle cx="39.5" cy="38.5" r="30.5" fill="#D01313"/>
<path d="M50.3335 31.9167H44.6668V29.0833L41.8335 26.25H36.1668L33.3335 29.0833V31.9167H27.6668C26.1085 31.9167 24.8335 33.1917 24.8335 34.75V41.8333C24.8335 42.8958 25.4002 43.7883 26.2502 44.2842V48.9167C26.2502 50.4892 27.511 51.75 29.0835 51.75H48.9168C50.4893 51.75 51.7502 50.4892 51.7502 48.9167V44.27C52.586 43.7742 53.1668 42.8675 53.1668 41.8333V34.75C53.1668 33.1917 51.8918 31.9167 50.3335 31.9167ZM36.1668 29.0833H41.8335V31.9167H36.1668V29.0833ZM27.6668 34.75H50.3335V41.8333H43.2502V37.5833H34.7502V41.8333H27.6668V34.75ZM40.4168 43.25H37.5835V40.4167H40.4168V43.25ZM48.9168 48.9167H29.0835V44.6667H34.7502V46.0833H43.2502V44.6667H48.9168V48.9167Z" fill="white"/>
</svg>
