<svg width="78" height="78" viewBox="0 0 78 78" fill="none" xmlns="http://www.w3.org/2000/svg">
<rect x="0.5" y="0.5" width="77" height="77" rx="38.5" fill="white"/>
<rect x="0.5" y="0.5" width="77" height="77" rx="38.5" stroke="#E9E9E9"/>
<circle cx="39.5" cy="38.5" r="30.5" fill="#FF5EF7"/>
<path d="M50.333 31.9167H44.6663V29.0833L41.833 26.25H36.1663L33.333 29.0833V31.9167H27.6663C26.108 31.9167 24.833 33.1917 24.833 34.75V41.8333C24.833 42.8958 25.3997 43.7883 26.2497 44.2842V48.9167C26.2497 50.4892 27.5105 51.75 29.083 51.75H48.9163C50.4888 51.75 51.7497 50.4892 51.7497 48.9167V44.27C52.5855 43.7742 53.1663 42.8675 53.1663 41.8333V34.75C53.1663 33.1917 51.8913 31.9167 50.333 31.9167ZM36.1663 29.0833H41.833V31.9167H36.1663V29.0833ZM27.6663 34.75H50.333V41.8333H43.2497V37.5833H34.7497V41.8333H27.6663V34.75ZM40.4163 43.25H37.583V40.4167H40.4163V43.25ZM48.9163 48.9167H29.083V44.6667H34.7497V46.0833H43.2497V44.6667H48.9163V48.9167Z" fill="white"/>
</svg>
