<svg width="55" height="55" viewBox="0 0 55 55" fill="none" xmlns="http://www.w3.org/2000/svg">
<path d="M34.375 26.3541V12.6041L27.5 5.72913L20.625 12.6041V17.1875H6.875V49.2708H48.125V26.3541H34.375ZM16.0417 44.6875H11.4583V40.1041H16.0417V44.6875ZM16.0417 35.5208H11.4583V30.9375H16.0417V35.5208ZM16.0417 26.3541H11.4583V21.7708H16.0417V26.3541ZM29.7917 44.6875H25.2083V40.1041H29.7917V44.6875ZM29.7917 35.5208H25.2083V30.9375H29.7917V35.5208ZM29.7917 26.3541H25.2083V21.7708H29.7917V26.3541ZM29.7917 17.1875H25.2083V12.6041H29.7917V17.1875ZM43.5417 44.6875H38.9583V40.1041H43.5417V44.6875ZM43.5417 35.5208H38.9583V30.9375H43.5417V35.5208Z" fill="#383B43"/>
</svg>
