<svg width="1163" height="864" viewBox="0 0 1163 864" fill="none" xmlns="http://www.w3.org/2000/svg">
<path d="M578.294 297.64L336.324 446.448L578.294 582.313V297.64Z" fill="#4219D8"/>
<path d="M253.512 546.084L336.505 446.396L579.765 582.906L496.776 689.714L253.512 546.084Z" fill="#997BFF"/>
<path d="M835.794 445.157L578.297 297.646V590.08L835.794 445.157Z" fill="#6237FF"/>
<path d="M333.738 702.652V593.473L496.564 688.796L578.476 584.37L585.969 862.808L333.738 702.652Z" fill="#6237FA"/>
<path d="M584.097 863.102L578.32 583.462L582.63 587.515L627.631 634.884L674.899 685.113L837.75 592.858L839.676 724.648L584.097 863.102Z" fill="#8662FF"/>
<path d="M675.338 685.831L577.637 582.796L835.508 445.034L912.132 551.259L675.338 685.831Z" fill="#997BFF"/>
<path d="M575.174 354.381C585.795 354.381 594.404 345.771 594.404 335.151C594.404 324.53 585.795 315.921 575.174 315.921C564.554 315.921 555.944 324.53 555.944 335.151C555.944 345.771 564.554 354.381 575.174 354.381Z" fill="url(#paint0_linear_1543_23103)"/>
<path d="M612.577 374.669C608.827 370.919 602.385 363.996 589.885 363.996C587.866 363.996 576.232 363.996 565.463 363.996C539.022 363.9 517.484 342.362 517.484 315.921H498.254C498.254 346.304 518.542 372.073 546.329 380.438V508.222H565.559V450.531H584.789V508.222H604.019V393.322L641.999 431.301L655.556 417.744L612.577 374.669Z" fill="url(#paint1_linear_1543_23103)"/>
<path fill-rule="evenodd" clip-rule="evenodd" d="M0 94.7012C36.8262 97.9319 72.4871 109.496 104.353 128.562C137.217 148.227 165.154 175.339 185.979 207.777C206.805 240.216 219.955 277.102 224.4 315.553C228.846 354.003 224.467 392.976 211.606 429.425C198.746 465.874 177.752 498.811 150.266 525.66C122.779 552.51 89.5451 572.544 53.1621 584.198C35.824 589.752 17.9945 593.329 0 594.907V460.717C4.60984 459.844 9.1759 458.69 13.6709 457.25C30.7603 451.776 46.3707 442.365 59.2812 429.754C72.1918 417.142 82.053 401.672 88.0938 384.552C94.1345 367.431 96.1908 349.125 94.1025 331.064C92.0143 313.004 85.8385 295.678 76.0566 280.441C66.2747 265.205 53.1516 252.47 37.7148 243.233C26.0334 236.244 13.2659 231.402 0 228.891V94.7012Z" fill="#CDBDFE"/>
<path fill-rule="evenodd" clip-rule="evenodd" d="M836.41 5.59082H1021.77C1014.84 8.3666 1008.15 11.7814 1001.81 15.8096C983.871 27.1936 969.232 43.0813 959.312 61.9316C949.391 80.7819 944.526 101.955 945.187 123.398C945.848 144.842 952.013 165.827 963.084 184.319C974.156 202.811 989.757 218.182 1008.38 228.942C1027 239.702 1048 245.486 1069.35 245.732C1090.71 245.979 1111.69 240.679 1130.25 230.348C1146.11 221.526 1159.74 209.29 1170.23 194.548V367.38C1138.46 380.184 1104.31 386.629 1069.7 386.23C1024.24 385.706 979.522 373.393 939.882 350.485C900.242 327.578 867.026 294.852 843.455 255.483C819.885 216.114 806.76 171.438 805.353 125.786C804.005 82.0481 813.459 38.8375 832.828 -0.00195312L836.41 5.59082Z" fill="#CDBDFE"/>
<defs>
<linearGradient id="paint0_linear_1543_23103" x1="576.905" y1="315.921" x2="576.905" y2="508.222" gradientUnits="userSpaceOnUse">
<stop stop-color="#EFD9FF"/>
<stop offset="1" stop-color="white"/>
</linearGradient>
<linearGradient id="paint1_linear_1543_23103" x1="576.905" y1="315.921" x2="576.905" y2="508.222" gradientUnits="userSpaceOnUse">
<stop stop-color="#EFD9FF"/>
<stop offset="1" stop-color="white"/>
</linearGradient>
</defs>
</svg>
