<svg width="332" height="324" viewBox="0 0 332 324" fill="none" xmlns="http://www.w3.org/2000/svg">
<g filter="url(#filter0_d_1527_23152)">
<path d="M146.244 43.1577C157.798 34.7631 173.443 34.7631 184.997 43.1577L268.803 104.046C280.357 112.441 285.192 127.32 280.778 140.903L248.767 239.422C244.354 253.005 231.697 262.201 217.415 262.201H113.826C99.5439 262.201 86.8865 253.005 82.4733 239.422L50.4624 140.903C46.0491 127.32 50.8838 112.441 62.4379 104.046L146.244 43.1577Z" fill="white"/>
</g>
<path d="M150.888 168.245H115.719V178.279H150.888V193.33L170.905 173.262L150.888 153.195V168.245ZM180.889 163.228V148.178H216.058V138.144H180.889V123.093L160.871 143.161L180.889 163.228Z" fill="#ED6C2C"/>
<defs>
<filter id="filter0_d_1527_23152" x="-0.00170898" y="2.57492e-05" width="331.246" height="323.038" filterUnits="userSpaceOnUse" color-interpolation-filters="sRGB">
<feFlood flood-opacity="0" result="BackgroundImageFix"/>
<feColorMatrix in="SourceAlpha" type="matrix" values="0 0 0 0 0 0 0 0 0 0 0 0 0 0 0 0 0 0 127 0" result="hardAlpha"/>
<feOffset dy="11.9876"/>
<feGaussianBlur stdDeviation="24.4247"/>
<feComposite in2="hardAlpha" operator="out"/>
<feColorMatrix type="matrix" values="0 0 0 0 0.964706 0 0 0 0 0.701961 0 0 0 0 0.568627 0 0 0 0.44 0"/>
<feBlend mode="normal" in2="BackgroundImageFix" result="effect1_dropShadow_1527_23152"/>
<feBlend mode="normal" in="SourceGraphic" in2="effect1_dropShadow_1527_23152" result="shape"/>
</filter>
</defs>
</svg>
